<svg xmlns="http://www.w3.org/2000/svg" viewBox="0 0 512 512" role="img" aria-label="mogu">
  <path
    fill="#F05B43"
    d="M256 94.4C207.2 37.6 136.8 27.2 86.4 68.8 32.8 112.8 35.2 205.6 41.6 277.6c6.4 76.8 18.4 140.8 65.6 170.4 64.8 40 235.2 40 300-.8 45.6-28.8 58.4-92.8 64-168 5.6-72.8 8-165.6-45.6-209.6-50.4-41.6-120-32-169.6 24.8Z"
  />
  <path
    fill="#FFF9F5"
    d="M256 226.4c-36.8-49.6-93.6-59.2-129.6-24.8-37.6 36-23.2 102.4 5.6 141.6 28.8 38.4 72.8 57.6 124 64 51.2-6.4 95.2-25.6 124-64 28.8-39.2 43.2-105.6 5.6-141.6-36-34.4-92.8-24.8-129.6 24.8Z"
  />
  <path
    fill="#F05B43"
    d="M318.4 389.6c33.6-10.4 59.2-37.6 66.4-74.4 6.4-32.8-2.4-57.6-25.6-62.4-25.6-5.6-42.4 12.8-46.4 46.4-4 36.8-10.4 65.6-40.8 99.2 16.8.8 32-2.4 46.4-8.8Z"
  />
  <path
    d="M352.8 280.8c6.4 23.2-1.6 53.6-20.8 72.8"
    fill="none"
    stroke="#FFF9F5"
    stroke-width="11.2"
    stroke-linecap="round"
  />
</svg>
