<svg xmlns="http://www.w3.org/2000/svg" viewBox="0 0 512 512" role="img" aria-label="mogu">
  <path
    fill="#F05B43"
    d="M256 92.8C204 36.8 132.8 33.6 82.4 76.8 16 134.4 20.8 294.4 60 380c35.2 77.6 114.4 95.2 196 95.2s160.8-17.6 196-95.2c39.2-85.6 44-245.6-22.4-303.2-50.4-43.2-121.6-40-173.6 16Z"
  />
  <path
    fill="#FFF9F5"
    d="M256 226.4c-36.8-49.6-93.6-59.2-129.6-24.8-37.6 36-23.2 102.4 5.6 141.6 28.8 38.4 72.8 57.6 124 64 51.2-6.4 95.2-25.6 124-64 28.8-39.2 43.2-105.6 5.6-141.6-36-34.4-92.8-24.8-129.6 24.8Z"
  />
  <path
    fill="#F05B43"
    d="M318.4 389.6c33.6-10.4 59.2-37.6 66.4-74.4 6.4-32.8-2.4-57.6-25.6-62.4-25.6-5.6-42.4 12.8-46.4 46.4-4 36.8-10.4 65.6-40.8 99.2 16.8.8 32-2.4 46.4-8.8Z"
  />
  <path
    d="M352.8 280.8c6.4 23.2-1.6 53.6-20.8 72.8"
    fill="none"
    stroke="#FFF9F5"
    stroke-width="11.2"
    stroke-linecap="round"
  />
</svg>
